<?xml version="1.0" encoding="UTF-8" standalone="no"?>
<!-- Created with Inkscape (http://www.inkscape.org/) -->

<svg
   xmlns:dc="http://purl.org/dc/elements/1.1/"
   xmlns:cc="http://creativecommons.org/ns#"
   xmlns:rdf="http://www.w3.org/1999/02/22-rdf-syntax-ns#"
   xmlns:svg="http://www.w3.org/2000/svg"
   xmlns="http://www.w3.org/2000/svg"
   xmlns:sodipodi="http://sodipodi.sourceforge.net/DTD/sodipodi-0.dtd"
   xmlns:inkscape="http://www.inkscape.org/namespaces/inkscape"
   width="16"
   height="16"
   id="svg2"
   sodipodi:version="0.32"
   inkscape:version="0.92.5 (2060ec1f9f, 2020-04-08)"
   version="1.0"
   sodipodi:docname="display-brightness-symbolic.svg"
   inkscape:output_extension="org.inkscape.output.svg.inkscape"
   style="display:inline">
  <defs
     id="defs4" />
  <sodipodi:namedview
     id="base"
     pagecolor="#ffffff"
     bordercolor="#e7e7e7"
     borderopacity="1"
     inkscape:pageopacity="0.0"
     inkscape:pageshadow="2"
     inkscape:zoom="44.218752"
     inkscape:cx="8.755316"
     inkscape:cy="8.5274715"
     inkscape:document-units="px"
     inkscape:current-layer="layer1"
     showgrid="true"
     inkscape:showpageshadow="false"
     showguides="false"
     inkscape:guide-bbox="true"
     inkscape:window-width="1360"
     inkscape:window-height="738"
     inkscape:window-x="0"
     inkscape:window-y="24"
     inkscape:window-maximized="1"
     inkscape:snap-global="true">
    <sodipodi:guide
       orientation="1,0"
       position="0,112"
       id="guide2383"
       inkscape:locked="false" />
    <sodipodi:guide
       orientation="0,1"
       position="26.278146,128"
       id="guide2385"
       inkscape:locked="false" />
    <sodipodi:guide
       orientation="1,0"
       position="128,54.082119"
       id="guide2387"
       inkscape:locked="false" />
    <sodipodi:guide
       orientation="0,1"
       position="78.156291,0"
       id="guide2389"
       inkscape:locked="false" />
    <sodipodi:guide
       orientation="0,1"
       position="60.863576,64.084768"
       id="guide2391"
       inkscape:locked="false" />
    <inkscape:grid
       type="xygrid"
       id="grid3672"
       visible="true"
       enabled="true"
       empspacing="8"
       snapvisiblegridlinesonly="true" />
  </sodipodi:namedview>
  <metadata
     id="metadata7">
    <rdf:RDF>
      <cc:Work
         rdf:about="">
        <dc:format>image/svg+xml</dc:format>
        <dc:type
           rdf:resource="http://purl.org/dc/dcmitype/StillImage" />
        <dc:title></dc:title>
      </cc:Work>
    </rdf:RDF>
  </metadata>
  <g
     inkscape:label="Icon"
     inkscape:groupmode="layer"
     id="layer1"
     style="display:inline"
     transform="translate(0,-6)">
    <path
       style="color:#000000;fill:#bebebe;fill-opacity:1;fill-rule:nonzero;stroke:none;stroke-width:1.5;marker:none;visibility:visible;display:inline;overflow:visible;enable-background:accumulate"
       d="m -12,6 -1,3 2,0 -1,-3 z m -5.65625,2.34375 1.40625,2.8125 1.40625,-1.40625 -2.8125,-1.40625 z m 11.3125,0 L -9.15625,9.75 -7.75,11.15625 -6.34375,8.34375 z M -12,10 c -2.209139,0 -4,1.790861 -4,4 0,2.209139 1.790861,4 4,4 2.209139,0 4,-1.790861 4,-4 0,-2.209139 -1.790861,-4 -4,-4 z m 0,1.5 c 1.380712,0 2.5,1.119288 2.5,2.5 0,1.380712 -1.119288,2.5 -2.5,2.5 -1.380712,0 -2.5,-1.119288 -2.5,-2.5 0,-1.380712 1.119288,-2.5 2.5,-2.5 z m -5,1.5 -3,1 3,1 0,-2 z m 10,0 0,2 3,-1 -3,-1 z m -9.25,3.84375 -1.40625,2.8125 2.8125,-1.40625 -1.40625,-1.40625 z m 8.5,0 -1.40625,1.40625 2.8125,1.40625 L -7.75,16.84375 z M -13,19 l 1,3 1,-3 -2,0 z"
       id="path3085"
       inkscape:connector-curvature="0" />
    <path
       id="path3102"
       d="m 8,30 c -2.209139,0 -4,1.790861 -4,4 0,2.209139 1.790861,4 4,4 2.209139,0 4,-1.790861 4,-4 0,-2.209139 -1.790861,-4 -4,-4 z m 0,2 c 1.1045695,0 2,0.89543 2,2 0,1.104569 -0.8954305,2 -2,2 -1.1045695,0 -2,-0.895431 -2,-2 0,-1.10457 0.8954305,-2 2,-2 z"
       style="opacity:0.35;color:#000000;fill:#000000;fill-opacity:1;fill-rule:nonzero;stroke:none;stroke-width:1.5;marker:none;visibility:visible;display:inline;overflow:visible;enable-background:accumulate"
       inkscape:connector-curvature="0" />
    <path
       inkscape:transform-center-y="-6.5"
       sodipodi:nodetypes="cccc"
       inkscape:connector-curvature="0"
       id="path3104"
       d="m 6,29 4,0 -2,-3 z"
       style="fill:#808080;stroke:none" />
    <path
       inkscape:transform-center-y="-2.4999999"
       inkscape:transform-center-x="-5.1291655"
       style="fill:#808080;stroke:none"
       d="m 11.330127,29.767949 2,3.464102 L 14.928204,30 z"
       id="path3106"
       inkscape:connector-curvature="0"
       sodipodi:nodetypes="cccc" />
    <path
       sodipodi:nodetypes="cccc"
       inkscape:connector-curvature="0"
       id="path3108"
       d="m 13.330127,34.767949 -2,3.464102 L 14.928203,38 z"
       style="fill:#808080;stroke:none"
       inkscape:transform-center-x="-5.129165"
       inkscape:transform-center-y="2.5" />
    <path
       inkscape:transform-center-y="6.5"
       style="fill:#808080;stroke:none"
       d="m 10,39 -4.0000002,0 2.0000001,3 z"
       id="path3110"
       inkscape:connector-curvature="0"
       sodipodi:nodetypes="cccc" />
    <path
       inkscape:transform-center-x="5.1291651"
       sodipodi:nodetypes="cccc"
       inkscape:connector-curvature="0"
       id="path3112"
       d="M 4.6698729,38.232051 2.6698728,34.767949 1.0717967,38 z"
       style="fill:#808080;stroke:none"
       inkscape:transform-center-y="2.5" />
    <path
       inkscape:transform-center-y="-2.5"
       style="fill:#808080;stroke:none"
       d="M 2.6698727,33.232051 4.669873,29.767949 1.0717967,30 z"
       id="path3114"
       inkscape:connector-curvature="0"
       sodipodi:nodetypes="cccc"
       inkscape:transform-center-x="5.129165" />
    <path
       style="color:#000000;fill:#bebebe;fill-opacity:1;fill-rule:nonzero;stroke:none;stroke-width:1.5;marker:none;visibility:visible;display:inline;overflow:visible;enable-background:accumulate"
       d="M 5.84375 0 L 5.09375 2.96875 L 2.15625 2.15625 L 2.96875 5.09375 L 0 5.84375 L 2.1875 8 L 0 10.15625 L 2.96875 10.90625 L 2.15625 13.84375 L 5.09375 13.03125 L 5.84375 16 L 8 13.8125 L 10.15625 16 L 10.90625 13.03125 L 13.84375 13.84375 L 13.03125 10.90625 L 16 10.15625 L 13.8125 8 L 16 5.84375 L 13.03125 5.09375 L 13.84375 2.15625 L 10.90625 2.96875 L 10.15625 0 L 8 2.1875 L 5.84375 0 z M 8 3 C 10.761424 3 13 5.2385763 13 8 C 13 10.761424 10.761424 13 8 13 L 8 3 z "
       transform="translate(0,6)"
       id="path3075" />
    <path
       style="fill:#07538f;fill-opacity:1;stroke-width:0.02261484"
       d="M 5.8242419,15.892033 C 5.8110769,15.842281 5.6454487,15.185885 5.456179,14.433376 5.2669093,13.680867 5.1047523,13.056858 5.0958303,13.046688 c -0.00892,-0.01017 -0.6647765,0.160998 -1.4574541,0.380373 -0.7926775,0.219374 -1.4461321,0.393961 -1.4521215,0.387972 -0.00599,-0.006 0.1684698,-0.659572 0.3876869,-1.452407 0.2192172,-0.792835 0.3904767,-1.448948 0.3805764,-1.458031 -0.0099,-0.0091 -0.6747464,-0.181957 -1.4774359,-0.384167 L 0.01764658,10.152774 1.0926298,9.0917011 C 1.6838707,8.5081106 2.1704637,8.0182646 2.1739478,8.0031543 2.1774318,7.988044 2.0604,7.8591475 1.9138771,7.7167174 1.7673542,7.5742876 1.2811114,7.0951325 0.83333756,6.6519285 L 0.01920332,5.8461031 1.4845762,5.4772049 C 2.2905311,5.2743109 2.9547134,5.1005977 2.9605364,5.0911757 2.9663595,5.0817537 2.7919537,4.4263313 2.5729676,3.6346818 2.3539816,2.8430322 2.1795007,2.1906294 2.1852322,2.1848979 2.1909638,2.1791663 2.8444416,2.3537307 3.6374054,2.572819 4.430369,2.791907 5.0866229,2.9627391 5.0957478,2.9524455 5.1048724,2.9421521 5.2719138,2.2976877 5.4669509,1.5203026 5.6619879,0.7429175 5.829264,0.08784321 5.8386753,0.06458199 5.8528786,0.02947743 6.0379548,0.20726833 6.9275507,1.1105942 L 7.9993146,2.1988995 9.0760537,1.1086812 10.152793,0.01846294 10.524867,1.4929366 c 0.204641,0.8109605 0.381704,1.4745281 0.393474,1.4745948 0.01177,6.78e-5 0.666923,-0.1783651 1.455896,-0.3965146 0.788974,-0.2181497 1.438415,-0.3927183 1.443203,-0.3879303 0.0048,0.00479 -0.170815,0.6572276 -0.390228,1.449866 -0.225701,0.815352 -0.390317,1.4493525 -0.37909,1.4600254 0.01091,0.010375 0.49306,0.137706 1.071434,0.2829568 0.578375,0.1452509 1.234187,0.3112207 1.45736,0.3688218 l 0.40577,0.1047294 -1.091016,1.0753924 -1.091017,1.0753924 1.090031,1.0734631 1.090031,1.0734632 -0.09948,0.02906 c -0.05472,0.01598 -0.710085,0.182584 -1.456375,0.370223 -0.746289,0.187639 -1.36582,0.349521 -1.376734,0.359738 -0.01118,0.01047 0.15432,0.647746 0.37909,1.459737 0.219413,0.792638 0.394813,1.445281 0.389777,1.450317 -0.005,0.005 -0.661483,-0.171309 -1.458771,-0.391877 -0.797288,-0.220568 -1.453007,-0.396713 -1.457153,-0.391433 -0.0041,0.0053 -0.173039,0.665996 -0.375315,1.468258 -0.202278,0.802261 -0.370283,1.461212 -0.373345,1.464334 -0.0056,0.0057 -1.3703578,-1.366497 -1.8790449,-1.889234 L 8.0029262,13.798418 6.925552,14.890455 5.8481779,15.982493 Z M 8.7485316,12.949765 C 10.051056,12.750694 11.224792,12.046019 12.009114,10.992212 12.333084,10.55693 12.566589,10.11162 12.738504,9.6012188 13.169242,8.3223899 13.077567,6.9777414 12.477526,5.7733177 12.206296,5.2288944 11.929361,4.8507363 11.481541,4.4132873 10.604359,3.5564198 9.5012984,3.0742771 8.2453514,2.9987641 l -0.254417,-0.015297 v 5.0159057 5.0159062 l 0.2657244,-0.01548 c 0.1461484,-0.0085 0.3674911,-0.03103 0.4918728,-0.05004 z"
       id="path914"
       inkscape:connector-curvature="0"
       transform="translate(0,6)" />
    <path
       style="fill:#c69df1;fill-opacity:1;stroke-width:0.02261484"
       d="M 5.8505479,15.935278 C 5.8433372,15.923611 5.733984,15.502041 5.607541,14.998456 5.3460407,13.956977 5.111219,13.047748 5.1011389,13.037668 c -0.00992,-0.0099 -0.4902255,0.1158 -1.7532724,0.458928 -0.614578,0.166961 -1.1249899,0.303565 -1.1342489,0.303565 -0.020516,0 -0.017821,-0.01054 0.3295893,-1.289046 0.3072534,-1.130723 0.4287362,-1.602957 0.4155274,-1.615256 -0.00833,-0.0078 -0.751974,-0.199171 -2.21933992,-0.571269 L 0.04389648,10.148224 1.1068855,9.0850582 c 0.584644,-0.5847411 1.0629891,-1.0777643 1.0629891,-1.0956067 0,-0.017842 -0.4795976,-0.5062832 -1.0657725,-1.0854239 L 0.03832961,5.8510445 1.22283,5.5511394 C 2.8171835,5.1474629 2.9411065,5.1136967 2.9542839,5.0793567 2.9605435,5.0630444 2.8462598,4.6092236 2.7003199,4.070866 2.2336544,2.3493826 2.1972779,2.210164 2.2125791,2.2042033 2.2208412,2.2009847 2.715814,2.3311708 3.3125188,2.4935056 4.5904569,2.8411716 5.0906725,2.971707 5.1019157,2.960464 5.109105,2.9532745 5.2165895,2.5360396 5.7248854,0.54221079 5.7906819,0.28411893 5.8540822,0.07295286 5.8657752,0.07295286 c 0.011693,0 0.4971788,0.48084804 1.0788576,1.06855124 L 8.0022312,2.2100552 9.070907,1.1274033 c 0.8921948,-0.90386295 1.07158,-1.07565508 1.086262,-1.04028264 0.0097,0.02330312 0.09353,0.34766964 0.18636,0.7208145 0.394842,1.58719814 0.55105,2.15971724 0.589267,2.15971724 0.01508,0 0.661444,-0.1731657 1.436364,-0.3848126 0.77492,-0.2116466 1.414357,-0.3794005 1.420972,-0.3727861 0.0066,0.00661 -0.08294,0.3604161 -0.199005,0.7862259 -0.385295,1.4135112 -0.543514,2.013892 -0.543514,2.0624246 0,0.037289 0.02147,0.053883 0.09611,0.074289 0.05286,0.014451 0.704169,0.1811349 1.447349,0.3704084 0.743181,0.1892738 1.351237,0.351107 1.351237,0.3596294 0,0.00852 -0.484862,0.4926819 -1.077471,1.0759098 L 13.78737,7.9993552 14.870495,9.066033 c 0.595718,0.5866728 1.078036,1.071584 1.071817,1.077579 -0.0093,0.009 -2.679335,0.697582 -2.843816,0.73342 -0.03412,0.0074 -0.05088,0.02759 -0.05088,0.06119 0,0.0519 0.158164,0.652825 0.530037,2.013817 0.118939,0.435297 0.216252,0.804888 0.216252,0.821312 0,0.0175 -0.01639,0.02537 -0.03958,0.01902 -1.843957,-0.505315 -2.836696,-0.765741 -2.853018,-0.748436 -0.01102,0.01169 -0.18457,0.66727 -0.385659,1.456849 -0.201089,0.789579 -0.368778,1.43876 -0.372644,1.442626 -0.0039,0.0039 -0.4875216,-0.479327 -1.0747921,-1.07376 L 8.0004485,13.788853 6.9320533,14.872672 c -0.5876172,0.596101 -1.0742947,1.074274 -1.0815054,1.062606 z m 2.6401745,-2.950634 c 0.5763998,-0.0525 1.1358778,-0.210464 1.6821756,-0.474939 1.560247,-0.755347 2.590393,-2.202816 2.806731,-3.9437648 0.0367,-0.2953331 0.03081,-0.932418 -0.01138,-1.2312005 C 12.848573,6.4871728 12.507972,5.6600425 11.998758,4.9803731 11.80857,4.7265216 11.368242,4.2762187 11.115625,4.077235 10.601122,3.6719662 10.060135,3.3865346 9.4640952,3.2058667 9.0631813,3.0843443 8.784057,3.0374343 8.1232312,2.9805193 L 7.9818885,2.9683457 v 5.0316529 5.0316524 l 0.1187279,-0.01114 c 0.0653,-0.0061 0.240848,-0.02227 0.390106,-0.03586 z"
       id="path1034"
       inkscape:connector-curvature="0"
       transform="translate(0,6)" />
  </g>
</svg>
